<?xml version="1.0" standalone="no"?>
<!DOCTYPE svg PUBLIC "-//W3C//DTD SVG 20010904//EN"
 "http://www.w3.org/TR/2001/REC-SVG-20010904/DTD/svg10.dtd">
<svg version="1.0" xmlns="http://www.w3.org/2000/svg"
 width="512.000000pt" height="512.000000pt" viewBox="0 0 512.000000 512.000000"
 preserveAspectRatio="xMidYMid meet">

<g transform="translate(0.000000,512.000000) scale(0.100000,-0.100000)"
fill="#1E90FF" stroke="none">
<path d="M2436 4694 c-171 -41 -325 -195 -370 -369 -65 -246 77 -518 315 -602
27 -10 49 -22 49 -28 0 -6 -18 -76 -39 -155 -117 -429 -269 -726 -466 -908
-127 -116 -258 -172 -405 -172 -88 0 -155 16 -247 59 -207 98 -430 346 -582
650 -83 166 -83 151 -12 216 71 67 106 122 127 207 64 247 -133 499 -391 500
-369 1 -553 -443 -289 -696 51 -48 116 -84 184 -102 24 -6 48 -17 52 -25 4 -8
94 -462 198 -1009 105 -547 193 -1003 196 -1012 5 -17 100 -18 1804 -18 1704
0 1799 1 1804 18 3 9 91 465 196 1012 104 547 194 1001 198 1009 4 8 28 19 52
25 68 18 133 54 184 102 186 179 158 484 -58 628 -259 172 -600 7 -632 -306
-13 -124 34 -237 137 -333 71 -65 71 -50 -12 -216 -81 -164 -186 -315 -298
-431 -185 -193 -348 -278 -533 -278 -372 0 -679 382 -869 1080 -21 79 -39 149
-39 155 0 6 22 18 49 28 112 40 220 136 277 249 194 384 -159 824 -580 722z"/>
<path d="M813 1004 c-48 -18 -123 -80 -153 -129 -30 -49 -41 -91 -41 -163 0
-113 65 -218 169 -269 l57 -28 1715 0 1715 0 57 28 c104 51 169 156 169 269
-1 106 -28 168 -107 237 -87 77 60 71 -1838 70 -1475 0 -1707 -3 -1743 -15z"/>
</g>
</svg>
